<svg id="Layer_1" data-name="Layer 1" xmlns="http://www.w3.org/2000/svg" viewBox="0 0 158.45 100"><defs><style>.cls-1{fill:#7ccece;}</style></defs><title>Artboard 1</title><g id="Sweet_Free_font:_Grand_Hotel_" data-name="Sweet (Free font: Grand Hotel)"><path class="cls-1" d="M4.56,91.11c.51-2.58,3.8-7.11,5.37-7.48.53-.12.77.14,1,.74.25.26,1.57,2.2,5.55,1.26A12.22,12.22,0,0,0,25.33,76C28,62.68,2.47,68.15,7,45.24,9.88,30.41,28.07,11.13,42.34,7.76c8.18-1.93,12.09,2.61,10.37,11.37C50.26,31.6,34.41,46.59,28,48.1,24.34,49,23,45.32,23.42,43c.37-1.91,1.1-1,2.88-1.43,5.66-1.34,17-13,18.41-20.41.75-3.82-.36-5.8-4.56-4.81-7.76,1.83-22.6,14.75-25,27C11.73,60.72,37.36,55,33.68,73.75,31.89,82.85,23.59,92,14.79,94.06S4.43,91.79,4.56,91.11Z"/><path class="cls-1" d="M73.54,43.37a3.06,3.06,0,0,0-2.31,1.9,17.83,17.83,0,0,1-.21,2.6L67.33,66.61c-.62,3.18-2.1,6.16-5.07,6.86s-3.27-1.54-2.66-5l3.76-19.16c.39-2-.92-3.29-3.5-2.69a3.05,3.05,0,0,0-2.31,1.9,18.17,18.17,0,0,1-.21,2.6L53.66,69.83C53,73,51.56,76,48.59,76.69c-3.36.79-3.25-2-2.66-5L49.69,52.5c.39-2-.92-3.29-3.5-2.69a3,3,0,0,0-2.31,1.9,18.33,18.33,0,0,1-.21,2.6L40,73c-.89,4.52-1.41,11.34,7.26,9.3a14.24,14.24,0,0,0,7.9-5.69c.67,1.92,3,3.13,6.32,2.34,8-1.9,10.76-8.52,11.78-13.71L77,46.05C77.42,44,76.11,42.76,73.54,43.37Z"/><path class="cls-1" d="M152.71,17.68c-5.36,1.5-10.85,2.88-15.61,4L140,7c.39-2-.92-3.29-3.5-2.69-1.09.26-2.56.93-2.68,1.51s.63.57.16,3L131.18,23c-4.2.91-7,1.41-7,1.41-2.26.53-2,5.81.54,5.22,0,0,1.92-.29,5.36-1.1l-3.9,19.82h0c-1.94,5.32-5.51,11.35-11.6,12.79-4.06,1-5.71-.88-6.25-3.47,8.05-4.21,13.49-12.51,14.7-18.7,1-5-1-7.82-5.37-6.79-6,1.42-13.51,10.77-15.6,21.39a22.38,22.38,0,0,0-.41,3.41c-2.1,4.35-5.37,8.48-10.28,9.64-4.06,1-5.71-.89-6.25-3.47,8.05-4.21,13.48-12.51,14.7-18.7,1-5-1-7.82-5.37-6.79C88.46,39.05,81,48.4,78.88,59c-2.05,10.46,3.46,15,10.58,13.3a23.08,23.08,0,0,0,13.37-9.22c1.81,3.49,5.52,4.77,9.84,3.75a22.49,22.49,0,0,0,11.94-7.43c.4,3.13,2.54,4,5.64,3.29C137,61.12,141.56,52.86,144,47a3.14,3.14,0,0,0,.19-.61c.31-1.59-.81-3.08-2.06-2.78-.78.18-1.71,1.12-2.37,3-1.42,3.84-3.88,9.53-7,10.27-1.64.39-2.42-.54-1.9-3.22L136,27.12c4.14-1,8.75-2.06,15-3.71C153.11,22.85,155.39,14.65,152.71,17.68ZM85.33,57.26c.53-3.48,3.51-13,7.34-13.86,1-.24,1.43.7,1.06,2.54a20.84,20.84,0,0,1-8.62,12.8C85.22,58.24,85.24,57.76,85.33,57.26Zm23.2-5.47c.53-3.48,3.51-13,7.34-13.86,1-.24,1.43.7,1.07,2.54a20.86,20.86,0,0,1-8.62,12.8C108.42,52.77,108.44,52.29,108.54,51.79Z"/></g></svg>